<svg width="49" height="49" viewBox="0 0 49 49" fill="none" xmlns="http://www.w3.org/2000/svg">
<path opacity="0.2" d="M42.7326 24.1382C42.7326 27.6982 41.6769 31.1784 39.699 34.1385C37.7211 37.0985 34.9099 39.4056 31.6209 40.768C28.3318 42.1304 24.7126 42.4869 21.2209 41.7923C17.7293 41.0978 14.522 39.3835 12.0046 36.8661C9.48728 34.3488 7.77295 31.1415 7.07842 27.6498C6.38388 24.1582 6.74034 20.539 8.10272 17.2499C9.4651 13.9608 11.7722 11.1496 14.7323 9.17173C17.6924 7.19387 21.1725 6.13818 24.7326 6.13818C29.5064 6.13818 34.0848 8.03461 37.4605 11.4103C40.8361 14.7859 42.7326 19.3643 42.7326 24.1382Z" fill="#032E15"/>
<path d="M24.7326 4.63818C20.8758 4.63818 17.1057 5.78184 13.8989 7.92453C10.6922 10.0672 8.19281 13.1127 6.7169 16.6759C5.24099 20.239 4.85483 24.1598 5.60724 27.9424C6.35965 31.7251 8.21685 35.1996 10.944 37.9268C13.6711 40.6539 17.1457 42.5111 20.9283 43.2635C24.7109 44.0159 28.6317 43.6297 32.1949 42.1538C35.758 40.6779 38.8035 38.1786 40.9462 34.9718C43.0889 31.765 44.2326 27.9949 44.2326 24.1382C44.2266 18.9683 42.1702 14.0118 38.5146 10.3562C34.8589 6.70051 29.9024 4.64414 24.7326 4.63818ZM41.2326 24.1382C41.2339 25.6599 41.0237 27.1743 40.6082 28.6382H33.3876C33.8476 25.6558 33.8476 22.6206 33.3876 19.6382H40.6082C41.0237 21.102 41.2339 22.6165 41.2326 24.1382ZM19.8576 31.6382H29.6076C28.647 34.7855 26.9795 37.6716 24.7326 40.0757C22.4864 37.671 20.8191 34.7851 19.8576 31.6382ZM19.1263 28.6382C18.6113 25.6603 18.6113 22.6161 19.1263 19.6382H30.3538C30.8688 22.6161 30.8688 25.6603 30.3538 28.6382H19.1263ZM8.23255 24.1382C8.23125 22.6165 8.44138 21.102 8.85693 19.6382H16.0776C15.6175 22.6206 15.6175 25.6558 16.0776 28.6382H8.85693C8.44138 27.1743 8.23125 25.6599 8.23255 24.1382ZM29.6076 16.6382H19.8576C20.8181 13.4908 22.4856 10.6048 24.7326 8.20068C26.9787 10.6054 28.646 13.4913 29.6076 16.6382ZM39.4194 16.6382H32.7407C31.8989 13.5499 30.4802 10.6488 28.5594 8.08818C30.8801 8.64568 33.0529 9.69839 34.9286 11.1742C36.8044 12.6499 38.3389 14.5139 39.4269 16.6382H39.4194ZM20.9057 8.08818C18.9849 10.6488 17.5662 13.5499 16.7244 16.6382H10.0382C11.1262 14.5139 12.6607 12.6499 14.5365 11.1742C16.4123 9.69839 18.585 8.64568 20.9057 8.08818ZM10.0382 31.6382H16.7244C17.5662 34.7265 18.9849 37.6275 20.9057 40.1882C18.585 39.6307 16.4123 38.578 14.5365 37.1022C12.6607 35.6264 11.1262 33.7625 10.0382 31.6382ZM28.5594 40.1882C30.4802 37.6275 31.8989 34.7265 32.7407 31.6382H39.4269C38.3389 33.7625 36.8044 35.6264 34.9286 37.1022C33.0529 38.578 30.8801 39.6307 28.5594 40.1882Z" fill="#032E15"/>
</svg>
