<svg width="84" height="14" viewBox="0 0 84 14" fill="none" xmlns="http://www.w3.org/2000/svg">
<path d="M6.55308 0.448486L8.02434 4.97655H12.7854L8.93363 7.77505L10.4049 12.3031L6.55308 9.50462L2.70128 12.3031L4.17253 7.77505L0.320731 4.97655H5.08182L6.55308 0.448486Z" fill="#00C950"/>
<path d="M24.0294 0.44873L25.5007 4.9768H30.2617L26.4099 7.7753L27.8812 12.3034L24.0294 9.50487L20.1776 12.3034L21.6489 7.7753L17.797 4.9768H22.5581L24.0294 0.44873Z" fill="#00C950"/>
<path d="M41.5018 0.44873L42.9731 4.9768H47.7342L43.8824 7.7753L45.3536 12.3034L41.5018 9.50487L37.65 12.3034L39.1213 7.7753L35.2695 4.9768H40.0306L41.5018 0.44873Z" fill="#00C950"/>
<path d="M58.9781 0.44873L60.4494 4.9768H65.2105L61.3587 7.7753L62.8299 12.3034L58.9781 9.50487L55.1263 12.3034L56.5976 7.7753L52.7458 4.9768H57.5069L58.9781 0.44873Z" fill="#00C950"/>
<path d="M76.7377 0.445801L78.2089 4.97387H82.97L79.1182 7.77237L80.5895 12.3004L76.7377 9.50194L72.8858 12.3004L74.3571 7.77237L70.5053 4.97387H75.2664L76.7377 0.445801Z" fill="#00C950"/>
<mask id="mask0_1_193" style="mask-type:alpha" maskUnits="userSpaceOnUse" x="70" y="0" width="13" height="13">
<path d="M76.7377 0.445312L78.2089 4.97338H82.97L79.1182 7.77188L80.5895 12.2999L76.7377 9.50145L72.8858 12.2999L74.3571 7.77188L70.5053 4.97338H75.2664L76.7377 0.445312Z" fill="#DEA453"/>
</mask>
<g mask="url(#mask0_1_193)">
<rect x="79.1846" y="0.445312" width="3.9" height="12" fill="#E1E1E1"/>
</g>
</svg>
