<svg width="49" height="49" viewBox="0 0 49 49" fill="none" xmlns="http://www.w3.org/2000/svg">
<path opacity="0.2" d="M44.4824 19.2632C44.4824 31.6382 24.9824 42.1382 24.9824 42.1382C24.9824 42.1382 5.48242 31.6382 5.48242 19.2632C5.48242 16.5779 6.54916 14.0025 8.44797 12.1037C10.3468 10.2049 12.9221 9.13818 15.6074 9.13818C19.843 9.13818 23.4712 11.4463 24.9824 15.1382C26.4937 11.4463 30.1218 9.13818 34.3574 9.13818C37.0427 9.13818 39.6181 10.2049 41.5169 12.1037C43.4157 14.0025 44.4824 16.5779 44.4824 19.2632Z" fill="#032E15"/>
<path d="M34.3574 7.63818C30.4855 7.63818 27.0955 9.30318 24.9824 12.1176C22.8693 9.30318 19.4793 7.63818 15.6074 7.63818C12.5253 7.64166 9.5705 8.86755 7.39114 11.0469C5.21178 13.2263 3.9859 16.1811 3.98242 19.2632C3.98242 32.3882 23.443 43.0119 24.2718 43.4507C24.4902 43.5682 24.7344 43.6297 24.9824 43.6297C25.2305 43.6297 25.4746 43.5682 25.693 43.4507C26.5218 43.0119 45.9824 32.3882 45.9824 19.2632C45.9789 16.1811 44.7531 13.2263 42.5737 11.0469C40.3943 8.86755 37.4395 7.64166 34.3574 7.63818ZM24.9824 40.4132C21.5587 38.4182 6.98242 29.3301 6.98242 19.2632C6.9854 16.9766 7.89506 14.7845 9.51191 13.1677C11.1288 11.5508 13.3208 10.6412 15.6074 10.6382C19.2543 10.6382 22.3162 12.5807 23.5949 15.7007C23.7079 15.9758 23.9002 16.2111 24.1472 16.3767C24.3943 16.5423 24.685 16.6307 24.9824 16.6307C25.2798 16.6307 25.5706 16.5423 25.8176 16.3767C26.0647 16.2111 26.2569 15.9758 26.3699 15.7007C27.6487 12.5751 30.7105 10.6382 34.3574 10.6382C36.644 10.6412 38.8361 11.5508 40.4529 13.1677C42.0698 14.7845 42.9794 16.9766 42.9824 19.2632C42.9824 29.3151 28.4024 38.4163 24.9824 40.4132Z" fill="#032E15"/>
</svg>
