<svg width="25" height="25" viewBox="0 0 25 25" fill="none" xmlns="http://www.w3.org/2000/svg">
<path fill-rule="evenodd" clip-rule="evenodd" d="M16.7001 3.43066H8.60979C5.81719 3.43066 3.55334 5.69451 3.55334 8.4871V16.5774C3.55334 19.37 5.81719 21.6338 8.60979 21.6338H16.7001C19.4927 21.6338 21.7565 19.37 21.7565 16.5774V8.4871C21.7565 5.69451 19.4927 3.43066 16.7001 3.43066ZM19.9868 16.5774C19.9812 18.3902 18.5129 19.8585 16.7001 19.8641H8.60979C6.7969 19.8585 5.32865 18.3902 5.3231 16.5774V8.4871C5.32865 6.67422 6.7969 5.20597 8.60979 5.20042H16.7001C18.5129 5.20597 19.9812 6.67422 19.9868 8.4871V16.5774ZM17.4586 8.73993C18.0171 8.73993 18.4698 8.28715 18.4698 7.72864C18.4698 7.17012 18.0171 6.71735 17.4586 6.71735C16.9 6.71735 16.4473 7.17012 16.4473 7.72864C16.4473 8.28715 16.9 8.73993 17.4586 8.73993ZM12.6549 7.98146C10.1416 7.98146 8.10414 10.0189 8.10414 12.5323C8.10414 15.0456 10.1416 17.0831 12.6549 17.0831C15.1683 17.0831 17.2057 15.0456 17.2057 12.5323C17.2085 11.3245 16.7298 10.1654 15.8758 9.31138C15.0218 8.45736 13.8627 7.97877 12.6549 7.98146ZM9.8739 12.5323C9.8739 14.0682 11.119 15.3133 12.6549 15.3133C14.1909 15.3133 15.436 14.0682 15.436 12.5323C15.436 10.9963 14.1909 9.75121 12.6549 9.75121C11.119 9.75121 9.8739 10.9963 9.8739 12.5323Z" fill="white"/>
</svg>
