<svg width="48" height="48" viewBox="0 0 48 48" fill="none" xmlns="http://www.w3.org/2000/svg">
<path opacity="0.2" d="M25.9762 28.0237C19.9912 18.0468 27.9712 8.07182 44.9306 9.06932C45.9375 26.0287 35.9531 34.0106 25.9762 28.0237ZM3.04872 16.5487C2.33622 28.6631 9.46309 34.3612 16.5881 30.0881C20.8631 22.9631 15.1631 15.8362 3.04872 16.5487Z" fill="#FCFCFC" fill-opacity="0.7"/>
<path d="M46.4306 8.97937C46.4092 8.6124 46.2537 8.26608 45.9938 8.00616C45.7339 7.74623 45.3876 7.5908 45.0206 7.56937C35.3156 7.00687 27.5231 9.95812 24.1744 15.4856C21.9619 19.1381 21.9656 23.5781 24.1444 27.8119C22.9056 29.2855 21.9993 31.0091 21.4875 32.865L18.4369 29.8125C19.9031 26.7506 19.8469 23.5575 18.2494 20.9081C15.7669 16.8244 10.0537 14.625 2.96061 15.0506C2.59365 15.072 2.24733 15.2275 1.9874 15.4874C1.72748 15.7473 1.57204 16.0937 1.55061 16.4606C1.13249 23.5537 3.32436 29.2669 7.40999 31.7419C8.7606 32.5663 10.3127 33.0016 11.895 33C13.4285 32.9811 14.9383 32.6178 16.3125 31.9369L21 36.6244V42C21 42.3978 21.158 42.7794 21.4393 43.0607C21.7206 43.342 22.1022 43.5 22.5 43.5C22.8978 43.5 23.2793 43.342 23.5606 43.0607C23.842 42.7794 24 42.3978 24 42V36.4706C23.9933 34.0843 24.8054 31.7679 26.3006 29.9081C28.2299 30.9164 30.3696 31.4559 32.5462 31.4831C34.6507 31.4899 36.7161 30.915 38.5144 29.8219C44.0419 26.4769 47.0006 18.6844 46.4306 8.97937ZM16.1362 27.5137L11.5594 22.9387C11.2758 22.6693 10.8981 22.5213 10.507 22.5263C10.1159 22.5313 9.74215 22.6889 9.46554 22.9655C9.18894 23.2422 9.03134 23.6159 9.02633 24.007C9.02132 24.3981 9.16931 24.7758 9.43874 25.0594L14.0156 29.6362C12.2137 30.2325 10.4662 30.0844 8.96436 29.175C6.08811 27.4331 4.46061 23.31 4.49999 18C9.80811 17.9531 13.9331 19.5881 15.675 22.4644C16.5844 23.9662 16.7325 25.7137 16.1362 27.5137ZM36.96 27.2587C34.4475 28.7794 31.4944 28.8956 28.4944 27.6337L38.5612 17.565C38.8427 17.2838 39.0009 16.9023 39.0011 16.5044C39.0013 16.1065 38.8434 15.7249 38.5622 15.4434C38.281 15.162 37.8995 15.0037 37.5016 15.0036C37.1037 15.0034 36.7221 15.1613 36.4406 15.4425L26.3719 25.5C25.1044 22.5 25.2187 19.545 26.7469 17.0344C29.3606 12.7219 35.5594 10.3219 43.4962 10.5037C43.6762 18.4387 41.2762 24.645 36.96 27.2587Z" fill="#FCFCFC" fill-opacity="0.7"/>
</svg>
