<svg width="49" height="49" viewBox="0 0 49 49" fill="none" xmlns="http://www.w3.org/2000/svg">
<path opacity="0.2" d="M26.7088 28.1621C20.7238 18.1853 28.7038 8.21025 45.6631 9.20775C46.67 26.1671 36.6856 34.149 26.7088 28.1621ZM3.78126 16.6871C3.06876 28.8015 10.1956 34.4996 17.3206 30.2265C21.5956 23.1015 15.8956 15.9746 3.78126 16.6871Z" fill="#032E15"/>
<path d="M47.1632 9.11767C47.1417 8.75071 46.9863 8.40439 46.7264 8.14446C46.4664 7.88454 46.1201 7.7291 45.7532 7.70767C36.0482 7.14517 28.2557 10.0964 24.9069 15.6239C22.6944 19.2764 22.6982 23.7164 24.8769 27.9502C23.6381 29.4238 22.7319 31.1474 22.22 33.0033L19.1694 29.9508C20.6357 26.8889 20.5794 23.6958 18.9819 21.0464C16.4994 16.9627 10.7863 14.7633 3.69316 15.1889C3.32619 15.2104 2.97987 15.3658 2.71994 15.6257C2.46002 15.8856 2.30459 16.232 2.28316 16.5989C1.86503 23.692 4.05691 29.4052 8.14253 31.8802C9.49314 32.7046 11.0452 33.1399 12.6275 33.1383C14.1611 33.1194 15.6708 32.7561 17.045 32.0752L21.7325 36.7627V42.1383C21.7325 42.5361 21.8906 42.9177 22.1719 43.199C22.4532 43.4803 22.8347 43.6383 23.2325 43.6383C23.6304 43.6383 24.0119 43.4803 24.2932 43.199C24.5745 42.9177 24.7325 42.5361 24.7325 42.1383V36.6089C24.7259 34.2226 25.5379 31.9062 27.0332 30.0464C28.9624 31.0547 31.1021 31.5942 33.2788 31.6214C35.3832 31.6282 37.4486 31.0533 39.2469 29.9602C44.7744 26.6152 47.7332 18.8227 47.1632 9.11767ZM16.8688 27.6521L12.2919 23.077C12.0083 22.8076 11.6307 22.6596 11.2395 22.6646C10.8484 22.6696 10.4747 22.8273 10.1981 23.1039C9.92149 23.3805 9.76388 23.7542 9.75887 24.1453C9.75386 24.5365 9.90185 24.9141 10.1713 25.1977L14.7482 29.7745C12.9463 30.3708 11.1988 30.2227 9.69691 29.3133C6.82066 27.5714 5.19316 23.4483 5.23253 18.1383C10.5407 18.0914 14.6657 19.7264 16.4075 22.6027C17.3169 24.1045 17.465 25.852 16.8688 27.6521ZM37.6925 27.397C35.18 28.9177 32.2269 29.0339 29.2269 27.772L39.2938 17.7033C39.5752 17.4221 39.7335 17.0406 39.7336 16.6427C39.7338 16.2448 39.5759 15.8632 39.2947 15.5817C39.0135 15.3003 38.632 15.1421 38.2341 15.1419C37.8363 15.1417 37.4546 15.2996 37.1732 15.5808L27.1044 25.6383C25.8369 22.6383 25.9513 19.6833 27.4794 17.1727C30.0932 12.8602 36.2919 10.4602 44.2288 10.642C44.4088 18.577 42.0088 24.7833 37.6925 27.397Z" fill="#032E15"/>
</svg>
