<svg width="33" height="33" viewBox="0 0 33 33" fill="none" xmlns="http://www.w3.org/2000/svg">
<path d="M26.2032 16.1319V16.806C26.2032 17.1784 25.9014 17.4803 25.5291 17.4803H17.7758V25.2335C17.7758 25.6058 17.474 25.9076 17.1016 25.9076H16.4275C16.0551 25.9076 15.7533 25.6058 15.7533 25.2335V17.4803H8.00006C7.62772 17.4803 7.32587 17.1784 7.32587 16.806V16.1319C7.32587 15.7596 7.62772 15.4577 8.00006 15.4577H15.7533V7.70446C15.7533 7.33211 16.0551 7.03027 16.4275 7.03027H17.1016C17.474 7.03027 17.7758 7.33211 17.7758 7.70446V15.4577H25.5291C25.9014 15.4577 26.2032 15.7596 26.2032 16.1319Z" fill="#032E15"/>
</svg>
