<svg width="33" height="33" viewBox="0 0 33 33" fill="none" xmlns="http://www.w3.org/2000/svg">
<path d="M26.2032 15.8809V16.5551C26.2032 16.9274 25.9014 17.2293 25.5291 17.2293H17.7758V24.9825C17.7758 25.3548 17.474 25.6566 17.1016 25.6566H16.4275C16.0551 25.6566 15.7533 25.3548 15.7533 24.9825V17.2293H8.00006C7.62772 17.2293 7.32587 16.9274 7.32587 16.5551V15.8809C7.32587 15.5086 7.62772 15.2067 8.00006 15.2067H15.7533V7.45348C15.7533 7.08114 16.0551 6.7793 16.4275 6.7793H17.1016C17.474 6.7793 17.7758 7.08114 17.7758 7.45348V15.2067H25.5291C25.9014 15.2067 26.2032 15.5086 26.2032 15.8809Z" fill="#032E15"/>
</svg>
