<svg width="33" height="33" viewBox="0 0 33 33" fill="none" xmlns="http://www.w3.org/2000/svg">
<path d="M26.2032 16.3211V16.9952C26.2032 17.3676 25.9014 17.6695 25.5291 17.6695H17.7758V25.4227C17.7758 25.795 17.474 26.0968 17.1016 26.0968H16.4275C16.0551 26.0968 15.7533 25.795 15.7533 25.4227V17.6695H8.00006C7.62772 17.6695 7.32587 17.3676 7.32587 16.9952V16.3211C7.32587 15.9488 7.62772 15.6469 8.00006 15.6469H15.7533V7.89367C15.7533 7.52132 16.0551 7.21948 16.4275 7.21948H17.1016C17.474 7.21948 17.7758 7.52132 17.7758 7.89367V15.6469H25.5291C25.9014 15.6469 26.2032 15.9488 26.2032 16.3211Z" fill="#032E15"/>
</svg>
