<svg width="33" height="34" viewBox="0 0 33 34" fill="none" xmlns="http://www.w3.org/2000/svg">
<path d="M26.2032 16.5064V17.1805C26.2032 17.5529 25.9014 17.8548 25.5291 17.8548H17.7758V25.608C17.7758 25.9803 17.474 26.2821 17.1016 26.2821H16.4275C16.0551 26.2821 15.7533 25.9803 15.7533 25.608V17.8548H8.00006C7.62772 17.8548 7.32587 17.5529 7.32587 17.1805V16.5064C7.32587 16.1341 7.62772 15.8322 8.00006 15.8322H15.7533V8.07897C15.7533 7.70662 16.0551 7.40479 16.4275 7.40479H17.1016C17.474 7.40479 17.7758 7.70662 17.7758 8.07897V15.8322H25.5291C25.9014 15.8322 26.2032 16.1341 26.2032 16.5064Z" fill="#032E15"/>
</svg>
