<svg width="33" height="34" viewBox="0 0 33 34" fill="none" xmlns="http://www.w3.org/2000/svg">
<path d="M26.2032 16.6937V17.3678C26.2032 17.7402 25.9014 18.042 25.5291 18.042H17.7758V25.7953C17.7758 26.1675 17.474 26.4694 17.1016 26.4694H16.4275C16.0551 26.4694 15.7533 26.1675 15.7533 25.7953V18.042H8.00006C7.62772 18.042 7.32587 17.7402 7.32587 17.3678V16.6937C7.32587 16.3213 7.62772 16.0194 8.00006 16.0194H15.7533V8.26623C15.7533 7.89388 16.0551 7.59204 16.4275 7.59204H17.1016C17.474 7.59204 17.7758 7.89388 17.7758 8.26623V16.0194H25.5291C25.9014 16.0194 26.2032 16.3213 26.2032 16.6937Z" fill="#032E15"/>
</svg>
