<svg width="118" height="20" viewBox="0 0 118 20" fill="none" xmlns="http://www.w3.org/2000/svg">
<g clip-path="url(#clip0_1_445)">
<path d="M9.57268 1.38024C9.92031 0.554567 11.1043 0.554568 11.4519 1.38024L13.5036 6.25353C13.6502 6.60161 13.9816 6.83945 14.3619 6.86957L19.6874 7.29136C20.5897 7.36282 20.9555 8.47523 20.2681 9.05699L16.2107 12.4906C15.9209 12.7359 15.7943 13.1207 15.8828 13.4874L17.1224 18.6213C17.3324 19.4912 16.3746 20.1787 15.6021 19.7126L11.0427 16.9614C10.7171 16.7648 10.3075 16.7648 9.98185 16.9614L5.42247 19.7126C4.64997 20.1787 3.69212 19.4912 3.90214 18.6213L5.14177 13.4874C5.23031 13.1207 5.10375 12.7359 4.81394 12.4906L0.756462 9.05699C0.0690083 8.47523 0.434878 7.36282 1.33717 7.29136L6.66268 6.86957C7.04307 6.83945 7.37442 6.60161 7.52097 6.25353L9.57268 1.38024Z" fill="url(#paint0_linear_1_445)"/>
<path d="M33.8436 1.38024C34.1912 0.554567 35.3752 0.554568 35.7228 1.38024L37.7744 6.25353C37.9211 6.60161 38.2524 6.83945 38.6328 6.86957L43.9582 7.29136C44.8605 7.36282 45.2264 8.47523 44.5389 9.05699L40.4816 12.4906C40.1918 12.7359 40.0651 13.1207 40.1537 13.4874L41.3933 18.6213C41.6033 19.4912 40.6455 20.1787 39.873 19.7126L35.3136 16.9614C34.988 16.7648 34.5784 16.7648 34.2527 16.9614L29.6933 19.7126C28.9208 20.1787 27.963 19.4912 28.173 18.6213L29.4126 13.4874C29.5012 13.1207 29.3746 12.7359 29.0848 12.4906L25.0273 9.05699C24.3399 8.47523 24.7058 7.36282 25.608 7.29136L30.9336 6.86957C31.3139 6.83945 31.6453 6.60161 31.7918 6.25353L33.8436 1.38024Z" fill="url(#paint1_linear_1_445)"/>
<path d="M58.1144 1.38024C58.4621 0.554567 59.646 0.554568 59.9937 1.38024L62.0453 6.25353C62.192 6.60161 62.5233 6.83945 62.9037 6.86957L68.2291 7.29136C69.1314 7.36282 69.4973 8.47523 68.8098 9.05699L64.7524 12.4906C64.4626 12.7359 64.336 13.1207 64.4245 13.4874L65.6642 18.6213C65.8742 19.4912 64.9164 20.1787 64.1439 19.7126L59.5845 16.9614C59.2588 16.7648 58.8493 16.7648 58.5236 16.9614L53.9642 19.7126C53.1917 20.1787 52.2339 19.4912 52.4439 18.6213L53.6835 13.4874C53.7721 13.1207 53.6455 12.7359 53.3557 12.4906L49.2982 9.05699C48.6108 8.47523 48.9766 7.36282 49.8789 7.29136L55.2044 6.86957C55.5848 6.83945 55.9162 6.60161 56.0627 6.25353L58.1144 1.38024Z" fill="url(#paint2_linear_1_445)"/>
<path d="M82.3853 1.38024C82.7329 0.554567 83.9169 0.554568 84.2645 1.38024L86.3162 6.25353C86.4628 6.60161 86.7942 6.83945 87.1746 6.86957L92.5 7.29136C93.4023 7.36282 93.7681 8.47523 93.0807 9.05699L89.0233 12.4906C88.7335 12.7359 88.6069 13.1207 88.6954 13.4874L89.935 18.6213C90.145 19.4912 89.1872 20.1787 88.4147 19.7126L83.8554 16.9614C83.5297 16.7648 83.1201 16.7648 82.7945 16.9614L78.2351 19.7126C77.4626 20.1787 76.5047 19.4912 76.7148 18.6213L77.9544 13.4874C78.0429 13.1207 77.9164 12.7359 77.6266 12.4906L73.5691 9.05699C72.8816 8.47523 73.2475 7.36282 74.1498 7.29136L79.4753 6.86957C79.8557 6.83945 80.187 6.60161 80.3336 6.25353L82.3853 1.38024Z" fill="url(#paint3_linear_1_445)"/>
<path d="M106.656 1.38024C107.004 0.554567 108.188 0.554568 108.535 1.38024L110.587 6.25353C110.734 6.60161 111.065 6.83945 111.445 6.86957L116.771 7.29136C117.673 7.36282 118.039 8.47523 117.352 9.05699L113.294 12.4906C113.004 12.7359 112.878 13.1207 112.966 13.4874L114.206 18.6213C114.416 19.4912 113.458 20.1787 112.686 19.7126L108.126 16.9614C107.801 16.7648 107.391 16.7648 107.065 16.9614L102.506 19.7126C101.733 20.1787 100.776 19.4912 100.986 18.6213L102.225 13.4874C102.314 13.1207 102.187 12.7359 101.897 12.4906L97.84 9.05699C97.1525 8.47523 97.5184 7.36282 98.4207 7.29136L103.746 6.86957C104.127 6.83945 104.458 6.60161 104.604 6.25353L106.656 1.38024Z" fill="url(#paint4_linear_1_445)"/>
</g>
<defs>
<linearGradient id="paint0_linear_1_445" x1="10.5123" y1="0.760986" x2="10.5123" y2="19.8631" gradientUnits="userSpaceOnUse">
<stop stop-color="#032E15"/>
<stop offset="1" stop-color="#016630"/>
</linearGradient>
<linearGradient id="paint1_linear_1_445" x1="34.7831" y1="0.760986" x2="34.7831" y2="19.8631" gradientUnits="userSpaceOnUse">
<stop stop-color="#032E15"/>
<stop offset="1" stop-color="#016630"/>
</linearGradient>
<linearGradient id="paint2_linear_1_445" x1="59.054" y1="0.760986" x2="59.054" y2="19.8631" gradientUnits="userSpaceOnUse">
<stop stop-color="#032E15"/>
<stop offset="1" stop-color="#016630"/>
</linearGradient>
<linearGradient id="paint3_linear_1_445" x1="83.3249" y1="0.760986" x2="83.3249" y2="19.8631" gradientUnits="userSpaceOnUse">
<stop stop-color="#032E15"/>
<stop offset="1" stop-color="#016630"/>
</linearGradient>
<linearGradient id="paint4_linear_1_445" x1="107.596" y1="0.760986" x2="107.596" y2="19.8631" gradientUnits="userSpaceOnUse">
<stop stop-color="#032E15"/>
<stop offset="1" stop-color="#016630"/>
</linearGradient>
<clipPath id="clip0_1_445">
<rect width="117.309" height="19.1021" fill="white" transform="translate(0.399414 0.760986)"/>
</clipPath>
</defs>
</svg>
