<svg width="118" height="20" viewBox="0 0 118 20" fill="none" xmlns="http://www.w3.org/2000/svg">
<g clip-path="url(#clip0_1_417)">
<path d="M9.49553 1.38024C9.84316 0.554567 11.0271 0.554568 11.3748 1.38024L13.4264 6.25353C13.5731 6.60161 13.9044 6.83945 14.2848 6.86957L19.6102 7.29136C20.5125 7.36282 20.8784 8.47523 20.1909 9.05699L16.1335 12.4906C15.8437 12.7359 15.7171 13.1207 15.8056 13.4874L17.0453 18.6213C17.2553 19.4912 16.2975 20.1787 15.525 19.7126L10.9656 16.9614C10.6399 16.7648 10.2304 16.7648 9.9047 16.9614L5.34532 19.7126C4.57282 20.1787 3.61497 19.4912 3.825 18.6213L5.06462 13.4874C5.15317 13.1207 5.0266 12.7359 4.7368 12.4906L0.679313 9.05699C-0.00814015 8.47523 0.357729 7.36282 1.26002 7.29136L6.58553 6.86957C6.96592 6.83945 7.29728 6.60161 7.44382 6.25353L9.49553 1.38024Z" fill="url(#paint0_linear_1_417)"/>
<path d="M33.7663 1.38024C34.1139 0.554567 35.2979 0.554568 35.6455 1.38024L37.6972 6.25353C37.8438 6.60161 38.1752 6.83945 38.5555 6.86957L43.881 7.29136C44.7833 7.36282 45.1491 8.47523 44.4617 9.05699L40.4043 12.4906C40.1145 12.7359 39.9879 13.1207 40.0764 13.4874L41.316 18.6213C41.526 19.4912 40.5682 20.1787 39.7957 19.7126L35.2364 16.9614C34.9107 16.7648 34.5011 16.7648 34.1755 16.9614L29.6161 19.7126C28.8436 20.1787 27.8857 19.4912 28.0957 18.6213L29.3354 13.4874C29.4239 13.1207 29.2973 12.7359 29.0075 12.4906L24.9501 9.05699C24.2626 8.47523 24.6285 7.36282 25.5308 7.29136L30.8563 6.86957C31.2367 6.83945 31.568 6.60161 31.7146 6.25353L33.7663 1.38024Z" fill="url(#paint1_linear_1_417)"/>
<path d="M58.0373 1.38024C58.3849 0.554567 59.5689 0.554568 59.9165 1.38024L61.9682 6.25353C62.1148 6.60161 62.4462 6.83945 62.8265 6.86957L68.152 7.29136C69.0543 7.36282 69.4201 8.47523 68.7327 9.05699L64.6753 12.4906C64.3855 12.7359 64.2589 13.1207 64.3474 13.4874L65.587 18.6213C65.797 19.4912 64.8392 20.1787 64.0667 19.7126L59.5073 16.9614C59.1817 16.7648 58.7721 16.7648 58.4465 16.9614L53.8871 19.7126C53.1146 20.1787 52.1567 19.4912 52.3667 18.6213L53.6064 13.4874C53.6949 13.1207 53.5683 12.7359 53.2785 12.4906L49.2211 9.05699C48.5336 8.47523 48.8995 7.36282 49.8018 7.29136L55.1273 6.86957C55.5077 6.83945 55.839 6.60161 55.9856 6.25353L58.0373 1.38024Z" fill="url(#paint2_linear_1_417)"/>
<path d="M82.308 1.38024C82.6557 0.554567 83.8396 0.554568 84.1873 1.38024L86.2389 6.25353C86.3856 6.60161 86.7169 6.83945 87.0973 6.86957L92.4227 7.29136C93.325 7.36282 93.6909 8.47523 93.0034 9.05699L88.946 12.4906C88.6562 12.7359 88.5296 13.1207 88.6181 13.4874L89.8578 18.6213C90.0678 19.4912 89.11 20.1787 88.3375 19.7126L83.7781 16.9614C83.4524 16.7648 83.0429 16.7648 82.7172 16.9614L78.1578 19.7126C77.3853 20.1787 76.4275 19.4912 76.6375 18.6213L77.8771 13.4874C77.9657 13.1207 77.8391 12.7359 77.5493 12.4906L73.4918 9.05699C72.8044 8.47523 73.1702 7.36282 74.0725 7.29136L79.398 6.86957C79.7784 6.83945 80.1098 6.60161 80.2563 6.25353L82.308 1.38024Z" fill="url(#paint3_linear_1_417)"/>
<path d="M106.579 1.38024C106.927 0.554567 108.111 0.554568 108.458 1.38024L110.51 6.25353C110.657 6.60161 110.988 6.83945 111.368 6.86957L116.694 7.29136C117.596 7.36282 117.962 8.47523 117.274 9.05699L113.217 12.4906C112.927 12.7359 112.801 13.1207 112.889 13.4874L114.129 18.6213C114.339 19.4912 113.381 20.1787 112.608 19.7126L108.049 16.9614C107.723 16.7648 107.314 16.7648 106.988 16.9614L102.429 19.7126C101.656 20.1787 100.698 19.4912 100.908 18.6213L102.148 13.4874C102.237 13.1207 102.11 12.7359 101.82 12.4906L97.7628 9.05699C97.0754 8.47523 97.4412 7.36282 98.3435 7.29136L103.669 6.86957C104.049 6.83945 104.381 6.60161 104.527 6.25353L106.579 1.38024Z" fill="url(#paint4_linear_1_417)"/>
</g>
<defs>
<linearGradient id="paint0_linear_1_417" x1="10.4351" y1="0.760986" x2="10.4351" y2="19.8631" gradientUnits="userSpaceOnUse">
<stop stop-color="#032E15"/>
<stop offset="1" stop-color="#016630"/>
</linearGradient>
<linearGradient id="paint1_linear_1_417" x1="34.7059" y1="0.760986" x2="34.7059" y2="19.8631" gradientUnits="userSpaceOnUse">
<stop stop-color="#032E15"/>
<stop offset="1" stop-color="#016630"/>
</linearGradient>
<linearGradient id="paint2_linear_1_417" x1="58.9769" y1="0.760986" x2="58.9769" y2="19.8631" gradientUnits="userSpaceOnUse">
<stop stop-color="#032E15"/>
<stop offset="1" stop-color="#016630"/>
</linearGradient>
<linearGradient id="paint3_linear_1_417" x1="83.2476" y1="0.760986" x2="83.2476" y2="19.8631" gradientUnits="userSpaceOnUse">
<stop stop-color="#032E15"/>
<stop offset="1" stop-color="#016630"/>
</linearGradient>
<linearGradient id="paint4_linear_1_417" x1="107.519" y1="0.760986" x2="107.519" y2="19.8631" gradientUnits="userSpaceOnUse">
<stop stop-color="#032E15"/>
<stop offset="1" stop-color="#016630"/>
</linearGradient>
<clipPath id="clip0_1_417">
<rect width="117.309" height="19.1021" fill="white" transform="translate(0.322266 0.760986)"/>
</clipPath>
</defs>
</svg>
