<svg width="119" height="20" viewBox="0 0 119 20" fill="none" xmlns="http://www.w3.org/2000/svg">
<g clip-path="url(#clip0_1_431)">
<path d="M10.0341 1.38024C10.3817 0.554567 11.5657 0.554568 11.9133 1.38024L13.965 6.25353C14.1116 6.60161 14.443 6.83945 14.8234 6.86957L20.1488 7.29136C21.0511 7.36282 21.417 8.47523 20.7295 9.05699L16.6721 12.4906C16.3823 12.7359 16.2557 13.1207 16.3442 13.4874L17.5838 18.6213C17.7938 19.4912 16.836 20.1787 16.0635 19.7126L11.5042 16.9614C11.1785 16.7648 10.7689 16.7648 10.4433 16.9614L5.8839 19.7126C5.1114 20.1787 4.15355 19.4912 4.36357 18.6213L5.6032 13.4874C5.69174 13.1207 5.56517 12.7359 5.27537 12.4906L1.21789 9.05699C0.530434 8.47523 0.896304 7.36282 1.7986 7.29136L7.12411 6.86957C7.5045 6.83945 7.83585 6.60161 7.9824 6.25353L10.0341 1.38024Z" fill="url(#paint0_linear_1_431)"/>
<path d="M34.305 1.38024C34.6526 0.554567 35.8366 0.554568 36.1842 1.38024L38.2359 6.25353C38.3825 6.60161 38.7139 6.83945 39.0942 6.86957L44.4197 7.29136C45.322 7.36282 45.6878 8.47523 45.0004 9.05699L40.943 12.4906C40.6532 12.7359 40.5266 13.1207 40.6151 13.4874L41.8547 18.6213C42.0647 19.4912 41.1069 20.1787 40.3344 19.7126L35.775 16.9614C35.4494 16.7648 35.0398 16.7648 34.7142 16.9614L30.1548 19.7126C29.3823 20.1787 28.4244 19.4912 28.6344 18.6213L29.8741 13.4874C29.9626 13.1207 29.836 12.7359 29.5462 12.4906L25.4888 9.05699C24.8013 8.47523 25.1672 7.36282 26.0695 7.29136L31.395 6.86957C31.7754 6.83945 32.1067 6.60161 32.2533 6.25353L34.305 1.38024Z" fill="url(#paint1_linear_1_431)"/>
<path d="M58.5759 1.38024C58.9235 0.554567 60.1075 0.554568 60.4551 1.38024L62.5067 6.25353C62.6534 6.60161 62.9847 6.83945 63.3651 6.86957L68.6905 7.29136C69.5928 7.36282 69.9587 8.47523 69.2712 9.05699L65.2139 12.4906C64.9241 12.7359 64.7974 13.1207 64.886 13.4874L66.1256 18.6213C66.3356 19.4912 65.3778 20.1787 64.6053 19.7126L60.0459 16.9614C59.7203 16.7648 59.3107 16.7648 58.985 16.9614L54.4256 19.7126C53.6531 20.1787 52.6953 19.4912 52.9053 18.6213L54.1449 13.4874C54.2335 13.1207 54.1069 12.7359 53.8171 12.4906L49.7596 9.05699C49.0722 8.47523 49.4381 7.36282 50.3403 7.29136L55.6659 6.86957C56.0462 6.83945 56.3776 6.60161 56.5241 6.25353L58.5759 1.38024Z" fill="url(#paint2_linear_1_431)"/>
<path d="M82.8467 1.38024C83.1944 0.554567 84.3783 0.554568 84.726 1.38024L86.7776 6.25353C86.9243 6.60161 87.2556 6.83945 87.636 6.86957L92.9614 7.29136C93.8637 7.36282 94.2296 8.47523 93.5421 9.05699L89.4847 12.4906C89.1949 12.7359 89.0683 13.1207 89.1568 13.4874L90.3965 18.6213C90.6065 19.4912 89.6487 20.1787 88.8762 19.7126L84.3168 16.9614C83.9911 16.7648 83.5816 16.7648 83.2559 16.9614L78.6965 19.7126C77.924 20.1787 76.9662 19.4912 77.1762 18.6213L78.4158 13.4874C78.5044 13.1207 78.3778 12.7359 78.088 12.4906L74.0305 9.05699C73.3431 8.47523 73.7089 7.36282 74.6112 7.29136L79.9367 6.86957C80.3171 6.83945 80.6485 6.60161 80.795 6.25353L82.8467 1.38024Z" fill="url(#paint3_linear_1_431)"/>
<path d="M107.118 1.38024C107.465 0.554567 108.649 0.554568 108.997 1.38024L111.048 6.25353C111.195 6.60161 111.526 6.83945 111.907 6.86957L117.232 7.29136C118.135 7.36282 118.5 8.47523 117.813 9.05699L113.756 12.4906C113.466 12.7359 113.339 13.1207 113.428 13.4874L114.667 18.6213C114.877 19.4912 113.92 20.1787 113.147 19.7126L108.588 16.9614C108.262 16.7648 107.852 16.7648 107.527 16.9614L102.967 19.7126C102.195 20.1787 101.237 19.4912 101.447 18.6213L102.687 13.4874C102.775 13.1207 102.649 12.7359 102.359 12.4906L98.3014 9.05699C97.6139 8.47523 97.9798 7.36282 98.8821 7.29136L104.208 6.86957C104.588 6.83945 104.919 6.60161 105.066 6.25353L107.118 1.38024Z" fill="url(#paint4_linear_1_431)"/>
</g>
<defs>
<linearGradient id="paint0_linear_1_431" x1="10.9737" y1="0.760986" x2="10.9737" y2="19.8631" gradientUnits="userSpaceOnUse">
<stop stop-color="#032E15"/>
<stop offset="1" stop-color="#016630"/>
</linearGradient>
<linearGradient id="paint1_linear_1_431" x1="35.2446" y1="0.760986" x2="35.2446" y2="19.8631" gradientUnits="userSpaceOnUse">
<stop stop-color="#032E15"/>
<stop offset="1" stop-color="#016630"/>
</linearGradient>
<linearGradient id="paint2_linear_1_431" x1="59.5154" y1="0.760986" x2="59.5154" y2="19.8631" gradientUnits="userSpaceOnUse">
<stop stop-color="#032E15"/>
<stop offset="1" stop-color="#016630"/>
</linearGradient>
<linearGradient id="paint3_linear_1_431" x1="83.7863" y1="0.760986" x2="83.7863" y2="19.8631" gradientUnits="userSpaceOnUse">
<stop stop-color="#032E15"/>
<stop offset="1" stop-color="#016630"/>
</linearGradient>
<linearGradient id="paint4_linear_1_431" x1="108.057" y1="0.760986" x2="108.057" y2="19.8631" gradientUnits="userSpaceOnUse">
<stop stop-color="#032E15"/>
<stop offset="1" stop-color="#016630"/>
</linearGradient>
<clipPath id="clip0_1_431">
<rect width="117.309" height="19.1021" fill="white" transform="translate(0.86084 0.760986)"/>
</clipPath>
</defs>
</svg>
