<svg width="49" height="49" viewBox="0 0 49 49" fill="none" xmlns="http://www.w3.org/2000/svg">
<g clip-path="url(#clip0_1_93)">
<path opacity="0.2" d="M46.9825 22.6382V34.6382C46.9825 35.036 46.8245 35.4175 46.5432 35.6988C46.2619 35.9801 45.8804 36.1382 45.4825 36.1382H40.9825C40.9825 34.9447 40.5084 33.8001 39.6645 32.9562C38.8206 32.1123 37.676 31.6382 36.4825 31.6382C35.2891 31.6382 34.1445 32.1123 33.3006 32.9562C32.4566 33.8001 31.9825 34.9447 31.9825 36.1382H19.9825C19.9825 34.9447 19.5084 33.8001 18.6645 32.9562C17.8206 32.1123 16.676 31.6382 15.4825 31.6382C14.2891 31.6382 13.1445 32.1123 12.3006 32.9562C11.4566 33.8001 10.9825 34.9447 10.9825 36.1382H6.48254C6.08472 36.1382 5.70319 35.9801 5.42188 35.6988C5.14058 35.4175 4.98254 35.036 4.98254 34.6382V27.1382H34.9825V22.6382H46.9825Z" fill="#032E15"/>
<path d="M48.3738 22.0757L45.7488 15.5132C45.5261 14.9579 45.1418 14.4824 44.6457 14.1481C44.1496 13.8138 43.5645 13.6361 42.9663 13.6382H36.4825V12.1382C36.4825 11.7404 36.3245 11.3588 36.0432 11.0775C35.7619 10.7962 35.3804 10.6382 34.9825 10.6382H6.48254C5.68689 10.6382 4.92383 10.9543 4.36122 11.5169C3.79861 12.0795 3.48254 12.8425 3.48254 13.6382V34.6382C3.48254 35.4338 3.79861 36.1969 4.36122 36.7595C4.92383 37.3221 5.68689 37.6382 6.48254 37.6382H9.67004C10.0005 38.9288 10.7511 40.0727 11.8035 40.8896C12.8559 41.7065 14.1503 42.1499 15.4825 42.1499C16.8148 42.1499 18.1092 41.7065 19.1616 40.8896C20.214 40.0727 20.9646 38.9288 21.295 37.6382H30.67C31.0005 38.9288 31.7511 40.0727 32.8035 40.8896C33.8559 41.7065 35.1503 42.1499 36.4825 42.1499C37.8148 42.1499 39.1092 41.7065 40.1616 40.8896C41.214 40.0727 41.9646 38.9288 42.295 37.6382H45.4825C46.2782 37.6382 47.0413 37.3221 47.6039 36.7595C48.1665 36.1969 48.4825 35.4338 48.4825 34.6382V22.6382C48.4831 22.4454 48.4461 22.2544 48.3738 22.0757ZM36.4825 16.6382H42.9663L44.7663 21.1382H36.4825V16.6382ZM6.48254 13.6382H33.4825V25.6382H6.48254V13.6382ZM15.4825 39.1382C14.8892 39.1382 14.3092 38.9622 13.8158 38.6326C13.3225 38.3029 12.938 37.8344 12.7109 37.2862C12.4838 36.7381 12.4244 36.1349 12.5402 35.5529C12.6559 34.971 12.9417 34.4364 13.3612 34.0169C13.7808 33.5973 14.3153 33.3116 14.8973 33.1958C15.4792 33.0801 16.0824 33.1395 16.6306 33.3665C17.1788 33.5936 17.6473 33.9781 17.977 34.4715C18.3066 34.9648 18.4825 35.5448 18.4825 36.1382C18.4825 36.9338 18.1665 37.6969 17.6039 38.2595C17.0413 38.8221 16.2782 39.1382 15.4825 39.1382ZM30.67 34.6382H21.295C20.9646 33.3476 20.214 32.2036 19.1616 31.3867C18.1092 30.5698 16.8148 30.1264 15.4825 30.1264C14.1503 30.1264 12.8559 30.5698 11.8035 31.3867C10.7511 32.2036 10.0005 33.3476 9.67004 34.6382H6.48254V28.6382H33.4825V30.9463C32.7928 31.345 32.189 31.8766 31.7063 32.5103C31.2235 33.1441 30.8713 33.8673 30.67 34.6382ZM36.4825 39.1382C35.8892 39.1382 35.3092 38.9622 34.8158 38.6326C34.3225 38.3029 33.938 37.8344 33.7109 37.2862C33.4838 36.7381 33.4244 36.1349 33.5402 35.5529C33.6559 34.971 33.9417 34.4364 34.3612 34.0169C34.7808 33.5973 35.3153 33.3116 35.8973 33.1958C36.4792 33.0801 37.0824 33.1395 37.6306 33.3665C38.1788 33.5936 38.6473 33.9781 38.977 34.4715C39.3066 34.9648 39.4825 35.5448 39.4825 36.1382C39.4825 36.9338 39.1665 37.6969 38.6039 38.2595C38.0413 38.8221 37.2782 39.1382 36.4825 39.1382ZM45.4825 34.6382H42.295C41.9606 33.3507 41.2086 32.2105 40.1568 31.3962C39.105 30.5819 37.8127 30.1394 36.4825 30.1382V24.1382H45.4825V34.6382Z" fill="#032E15"/>
</g>
<defs>
<clipPath id="clip0_1_93">
<rect width="48" height="48" fill="white" transform="translate(0.482544 0.138184)"/>
</clipPath>
</defs>
</svg>
