<svg width="27" height="27" viewBox="0 0 27 27" fill="none" xmlns="http://www.w3.org/2000/svg">
<path d="M26.4254 24.063L21.2905 18.9281C22.8467 16.8909 23.7002 14.4198 23.7006 11.8123C23.7006 8.66998 22.4767 5.71554 20.2544 3.49361C18.0325 1.27169 15.0784 0.0478516 11.9357 0.0478516C8.79341 0.0478516 5.83896 1.27169 3.61703 3.49361C-0.969839 8.08087 -0.969839 15.5445 3.61703 20.131C5.83896 22.3533 8.79341 23.5771 11.9357 23.5771C14.5432 23.5768 17.0143 22.7233 19.0515 21.167L24.1865 26.302C24.4953 26.6112 24.9008 26.7658 25.3059 26.7658C25.711 26.7658 26.1165 26.6112 26.4254 26.302C27.0439 25.6839 27.0439 24.6811 26.4254 24.063ZM5.85597 17.892C2.50375 14.5398 2.50414 9.08514 5.85597 5.73254C7.47989 4.10901 9.63919 3.21452 11.9357 3.21452C14.2326 3.21452 16.3916 4.10901 18.0155 5.73254C19.6394 7.35647 20.5339 9.51577 20.5339 11.8123C20.5339 14.1092 19.6394 16.2681 18.0155 17.892C16.3916 19.516 14.2326 20.4105 11.9357 20.4105C9.63919 20.4105 7.47989 19.516 5.85597 17.892Z" fill="#032E15"/>
</svg>
